<?xml version="1.0" encoding="UTF-8" standalone="no"?>
<!DOCTYPE svg PUBLIC "-//W3C//DTD SVG 1.1//EN"
 "http://www.w3.org/Graphics/SVG/1.1/DTD/svg11.dtd">
<!-- Generated by graphviz version 2.40.1 (20161225.0304)
 -->
<!-- Title: dependencies Pages: 1 -->
<svg width="655pt" height="284pt"
 viewBox="0.00 0.00 655.00 284.00" xmlns="http://www.w3.org/2000/svg" xmlns:xlink="http://www.w3.org/1999/xlink">
<g id="graph0" class="graph" transform="scale(1 1) rotate(0) translate(4 280)">
<title>dependencies</title>
<polygon fill="#ffffff" stroke="transparent" points="-4,4 -4,-280 651,-280 651,4 -4,4"/>
<text text-anchor="start" x="302.5091" y="-42.4" font-family="sans-serif" font-weight="bold" font-size="14.00" fill="#000000">Legend</text>
<polygon fill="#ffffb3" stroke="transparent" points="89.5,-10 89.5,-30 109.5,-30 109.5,-10 89.5,-10"/>
<text text-anchor="start" x="113.129" y="-15.4" font-family="sans-serif" font-size="14.00" fill="#000000"> &#160;Declarations</text>
<polygon fill="#8dd3c7" stroke="transparent" points="202.5,-10 202.5,-30 222.5,-30 222.5,-10 202.5,-10"/>
<text text-anchor="start" x="226.2251" y="-15.4" font-family="sans-serif" font-size="14.00" fill="#000000"> &#160;Module</text>
<polygon fill="#80b1d3" stroke="transparent" points="288.5,-10 288.5,-30 308.5,-30 308.5,-10 288.5,-10"/>
<text text-anchor="start" x="312.2812" y="-15.4" font-family="sans-serif" font-size="14.00" fill="#000000"> &#160;Bootstrap</text>
<polygon fill="#fdb462" stroke="transparent" points="385.5,-10 385.5,-30 405.5,-30 405.5,-10 385.5,-10"/>
<text text-anchor="start" x="409.1732" y="-15.4" font-family="sans-serif" font-size="14.00" fill="#000000"> &#160;Providers</text>
<polygon fill="#fb8072" stroke="transparent" points="481.5,-10 481.5,-30 501.5,-30 501.5,-10 481.5,-10"/>
<text text-anchor="start" x="505.2258" y="-15.4" font-family="sans-serif" font-size="14.00" fill="#000000"> &#160;Exports</text>
<g id="clust1" class="cluster">
<title>cluster_AppModule</title>
<polygon fill="none" stroke="#000000" stroke-dasharray="1,5" points="8,-70 8,-268 639,-268 639,-70 8,-70"/>
</g>
<g id="clust2" class="cluster">
<title>cluster_AppModule_declarations</title>
<polygon fill="none" stroke="#000000" points="509,-78 509,-130 631,-130 631,-78 509,-78"/>
</g>
<g id="clust4" class="cluster">
<title>cluster_AppModule_imports</title>
<polygon fill="none" stroke="#000000" points="16,-78 16,-130 501,-130 501,-78 16,-78"/>
</g>
<g id="clust6" class="cluster">
<title>cluster_AppModule_bootstrap</title>
<polygon fill="none" stroke="#000000" points="259,-208 259,-260 383,-260 383,-208 259,-208"/>
</g>
<!-- AppComponent -->
<g id="node1" class="node">
<title>AppComponent</title>
<polygon fill="#ffffb3" stroke="#000000" points="622.9399,-122 517.0601,-122 517.0601,-86 622.9399,-86 622.9399,-122"/>
<text text-anchor="middle" x="570" y="-99.8" font-family="Times,serif" font-size="14.00" fill="#000000">AppComponent</text>
</g>
<!-- AppModule -->
<g id="node2" class="node">
<title>AppModule</title>
<polygon fill="#8dd3c7" stroke="#000000" points="362.6571,-187 359.6571,-191 338.6571,-191 335.6571,-187 279.3429,-187 279.3429,-151 362.6571,-151 362.6571,-187"/>
<text text-anchor="middle" x="321" y="-164.8" font-family="Times,serif" font-size="14.00" fill="#000000">AppModule</text>
</g>
<!-- AppComponent&#45;&gt;AppModule -->
<g id="edge1" class="edge">
<title>AppComponent&#45;&gt;AppModule</title>
<path fill="none" stroke="#000000" d="M570,-122.2843C570,-143.3211 570,-175 570,-175 570,-175 372.677,-175 372.677,-175"/>
<polygon fill="#000000" stroke="#000000" points="372.677,-171.5001 362.677,-175 372.677,-178.5001 372.677,-171.5001"/>
</g>
<!-- AppComponent  -->
<g id="node7" class="node">
<title>AppComponent </title>
<polygon fill="#80b1d3" stroke="#000000" points="375.439,-252 266.561,-252 266.561,-216 375.439,-216 375.439,-252"/>
<text text-anchor="middle" x="321" y="-229.8" font-family="Times,serif" font-size="14.00" fill="#000000">AppComponent </text>
</g>
<!-- AppModule&#45;&gt;AppComponent  -->
<g id="edge6" class="edge">
<title>AppModule&#45;&gt;AppComponent </title>
<path fill="none" stroke="#000000" stroke-dasharray="1,5" d="M321,-187.1061C321,-187.1061 321,-205.991 321,-205.991"/>
<polygon fill="#000000" stroke="#000000" points="317.5001,-205.9909 321,-215.991 324.5001,-205.991 317.5001,-205.9909"/>
</g>
<!-- BrowserModule -->
<g id="node3" class="node">
<title>BrowserModule</title>
<polygon fill="#8dd3c7" stroke="#000000" points="493.4734,-122 490.4734,-126 469.4734,-126 466.4734,-122 386.5266,-122 386.5266,-86 493.4734,-86 493.4734,-122"/>
<text text-anchor="middle" x="440" y="-99.8" font-family="Times,serif" font-size="14.00" fill="#000000">BrowserModule</text>
</g>
<!-- BrowserModule&#45;&gt;AppModule -->
<g id="edge2" class="edge">
<title>BrowserModule&#45;&gt;AppModule</title>
<path fill="none" stroke="#000000" d="M440,-122.0225C440,-139.3734 440,-163 440,-163 440,-163 372.9549,-163 372.9549,-163"/>
<polygon fill="#000000" stroke="#000000" points="372.955,-159.5001 362.9549,-163 372.9549,-166.5001 372.955,-159.5001"/>
</g>
<!-- FormsModule -->
<g id="node4" class="node">
<title>FormsModule</title>
<polygon fill="#8dd3c7" stroke="#000000" points="368.8288,-122 365.8288,-126 344.8288,-126 341.8288,-122 273.1712,-122 273.1712,-86 368.8288,-86 368.8288,-122"/>
<text text-anchor="middle" x="321" y="-99.8" font-family="Times,serif" font-size="14.00" fill="#000000">FormsModule</text>
</g>
<!-- FormsModule&#45;&gt;AppModule -->
<g id="edge3" class="edge">
<title>FormsModule&#45;&gt;AppModule</title>
<path fill="none" stroke="#000000" d="M321,-122.1061C321,-122.1061 321,-140.991 321,-140.991"/>
<polygon fill="#000000" stroke="#000000" points="317.5001,-140.9909 321,-150.991 324.5001,-140.991 317.5001,-140.9909"/>
</g>
<!-- HttpModule -->
<g id="node5" class="node">
<title>HttpModule</title>
<polygon fill="#8dd3c7" stroke="#000000" points="255.4387,-122 252.4387,-126 231.4387,-126 228.4387,-122 170.5613,-122 170.5613,-86 255.4387,-86 255.4387,-122"/>
<text text-anchor="middle" x="213" y="-99.8" font-family="Times,serif" font-size="14.00" fill="#000000">HttpModule</text>
</g>
<!-- HttpModule&#45;&gt;AppModule -->
<g id="edge4" class="edge">
<title>HttpModule&#45;&gt;AppModule</title>
<path fill="none" stroke="#000000" d="M213,-122.0225C213,-139.3734 213,-163 213,-163 213,-163 269.2444,-163 269.2444,-163"/>
<polygon fill="#000000" stroke="#000000" points="269.2444,-166.5001 279.2444,-163 269.2443,-159.5001 269.2444,-166.5001"/>
</g>
<!-- AppRoutingModule -->
<g id="node6" class="node">
<title>AppRoutingModule</title>
<polygon fill="#8dd3c7" stroke="#000000" points="152.2744,-122 149.2744,-126 128.2744,-126 125.2744,-122 23.7256,-122 23.7256,-86 152.2744,-86 152.2744,-122"/>
<text text-anchor="middle" x="88" y="-99.8" font-family="Times,serif" font-size="14.00" fill="#000000">AppRoutingModule</text>
</g>
<!-- AppRoutingModule&#45;&gt;AppModule -->
<g id="edge5" class="edge">
<title>AppRoutingModule&#45;&gt;AppModule</title>
<path fill="none" stroke="#000000" d="M88,-122.2843C88,-143.3211 88,-175 88,-175 88,-175 269.0752,-175 269.0752,-175"/>
<polygon fill="#000000" stroke="#000000" points="269.0752,-178.5001 279.0752,-175 269.0751,-171.5001 269.0752,-178.5001"/>
</g>
</g>
</svg>
