<?xml version="1.0" encoding="UTF-8" standalone="no"?>
<!DOCTYPE svg PUBLIC "-//W3C//DTD SVG 1.1//EN"
 "http://www.w3.org/Graphics/SVG/1.1/DTD/svg11.dtd">
<!-- Generated by graphviz version 2.40.1 (20161225.0304)
 -->
<!-- Title: dependencies Pages: 1 -->
<svg width="2899pt" height="349pt"
 viewBox="0.00 0.00 2899.00 349.00" xmlns="http://www.w3.org/2000/svg" xmlns:xlink="http://www.w3.org/1999/xlink">
<g id="graph0" class="graph" transform="scale(1 1) rotate(0) translate(4 345)">
<title>dependencies</title>
<polygon fill="#ffffff" stroke="transparent" points="-4,4 -4,-345 2895,-345 2895,4 -4,4"/>
<text text-anchor="start" x="1424.5091" y="-42.4" font-family="sans-serif" font-weight="bold" font-size="14.00" fill="#000000">Legend</text>
<polygon fill="#ffffb3" stroke="transparent" points="1211.5,-10 1211.5,-30 1231.5,-30 1231.5,-10 1211.5,-10"/>
<text text-anchor="start" x="1235.129" y="-15.4" font-family="sans-serif" font-size="14.00" fill="#000000"> &#160;Declarations</text>
<polygon fill="#8dd3c7" stroke="transparent" points="1324.5,-10 1324.5,-30 1344.5,-30 1344.5,-10 1324.5,-10"/>
<text text-anchor="start" x="1348.2251" y="-15.4" font-family="sans-serif" font-size="14.00" fill="#000000"> &#160;Module</text>
<polygon fill="#80b1d3" stroke="transparent" points="1410.5,-10 1410.5,-30 1430.5,-30 1430.5,-10 1410.5,-10"/>
<text text-anchor="start" x="1434.2812" y="-15.4" font-family="sans-serif" font-size="14.00" fill="#000000"> &#160;Bootstrap</text>
<polygon fill="#fdb462" stroke="transparent" points="1507.5,-10 1507.5,-30 1527.5,-30 1527.5,-10 1507.5,-10"/>
<text text-anchor="start" x="1531.1732" y="-15.4" font-family="sans-serif" font-size="14.00" fill="#000000"> &#160;Providers</text>
<polygon fill="#fb8072" stroke="transparent" points="1603.5,-10 1603.5,-30 1623.5,-30 1623.5,-10 1603.5,-10"/>
<text text-anchor="start" x="1627.2258" y="-15.4" font-family="sans-serif" font-size="14.00" fill="#000000"> &#160;Exports</text>
<g id="clust1" class="cluster">
<title>cluster_AppModule</title>
<polygon fill="none" stroke="#000000" stroke-dasharray="1,5" points="8,-70 8,-333 2883,-333 2883,-70 8,-70"/>
</g>
<g id="clust2" class="cluster">
<title>cluster_AppModule_declarations</title>
<polygon fill="none" stroke="#000000" points="1214,-143 1214,-195 2875,-195 2875,-143 1214,-143"/>
</g>
<g id="clust3" class="cluster">
<title>cluster_AppModule_AppComponent_providers</title>
<polygon fill="none" stroke="#000000" points="2717,-78 2717,-130 2875,-130 2875,-78 2717,-78"/>
</g>
<g id="clust14" class="cluster">
<title>cluster_AppModule_imports</title>
<polygon fill="none" stroke="#000000" points="16,-143 16,-195 1206,-195 1206,-143 16,-143"/>
</g>
<g id="clust16" class="cluster">
<title>cluster_AppModule_bootstrap</title>
<polygon fill="none" stroke="#000000" points="1406,-273 1406,-325 1530,-325 1530,-273 1406,-273"/>
</g>
<!-- AppComponent -->
<g id="node1" class="node">
<title>AppComponent</title>
<polygon fill="#ffffb3" stroke="#000000" points="2866.9399,-187 2761.0601,-187 2761.0601,-151 2866.9399,-151 2866.9399,-187"/>
<text text-anchor="middle" x="2814" y="-164.8" font-family="Times,serif" font-size="14.00" fill="#000000">AppComponent</text>
</g>
<!-- AppModule -->
<g id="node12" class="node">
<title>AppModule</title>
<polygon fill="#8dd3c7" stroke="#000000" points="1509.6571,-252 1506.6571,-256 1485.6571,-256 1482.6571,-252 1426.3429,-252 1426.3429,-216 1509.6571,-216 1509.6571,-252"/>
<text text-anchor="middle" x="1468" y="-229.8" font-family="Times,serif" font-size="14.00" fill="#000000">AppModule</text>
</g>
<!-- AppComponent&#45;&gt;AppModule -->
<g id="edge1" class="edge">
<title>AppComponent&#45;&gt;AppModule</title>
<path fill="none" stroke="#000000" d="M2814,-187.1532C2814,-210.7566 2814,-249 2814,-249 2814,-249 1519.7591,-249 1519.7591,-249"/>
<polygon fill="#000000" stroke="#000000" points="1519.7591,-245.5001 1509.7591,-249 1519.759,-252.5001 1519.7591,-245.5001"/>
</g>
<!-- AlertComponent -->
<g id="node2" class="node">
<title>AlertComponent</title>
<polygon fill="#ffffb3" stroke="#000000" points="2743.0954,-187 2632.9046,-187 2632.9046,-151 2743.0954,-151 2743.0954,-187"/>
<text text-anchor="middle" x="2688" y="-164.8" font-family="Times,serif" font-size="14.00" fill="#000000">AlertComponent</text>
</g>
<!-- AlertComponent&#45;&gt;AppModule -->
<g id="edge3" class="edge">
<title>AlertComponent&#45;&gt;AppModule</title>
<path fill="none" stroke="#000000" d="M2688,-187.0109C2688,-209.4852 2688,-245 2688,-245 2688,-245 1519.9952,-245 1519.9952,-245"/>
<polygon fill="#000000" stroke="#000000" points="1519.9952,-241.5001 1509.9952,-245 1519.9951,-248.5001 1519.9952,-241.5001"/>
</g>
<!-- HeaderComponent -->
<g id="node3" class="node">
<title>HeaderComponent</title>
<polygon fill="#ffffb3" stroke="#000000" points="2614.7437,-187 2493.2563,-187 2493.2563,-151 2614.7437,-151 2614.7437,-187"/>
<text text-anchor="middle" x="2554" y="-164.8" font-family="Times,serif" font-size="14.00" fill="#000000">HeaderComponent</text>
</g>
<!-- HeaderComponent&#45;&gt;AppModule -->
<g id="edge4" class="edge">
<title>HeaderComponent&#45;&gt;AppModule</title>
<path fill="none" stroke="#000000" d="M2554,-187.0449C2554,-208.6623 2554,-242 2554,-242 2554,-242 1519.9071,-242 1519.9071,-242"/>
<polygon fill="#000000" stroke="#000000" points="1519.9071,-238.5001 1509.9071,-242 1519.907,-245.5001 1519.9071,-238.5001"/>
</g>
<!-- SideNavComponent -->
<g id="node4" class="node">
<title>SideNavComponent</title>
<polygon fill="#ffffb3" stroke="#000000" points="2474.5422,-187 2345.4578,-187 2345.4578,-151 2474.5422,-151 2474.5422,-187"/>
<text text-anchor="middle" x="2410" y="-164.8" font-family="Times,serif" font-size="14.00" fill="#000000">SideNavComponent</text>
</g>
<!-- SideNavComponent&#45;&gt;AppModule -->
<g id="edge5" class="edge">
<title>SideNavComponent&#45;&gt;AppModule</title>
<path fill="none" stroke="#000000" d="M2410,-187.1289C2410,-207.5724 2410,-238 2410,-238 2410,-238 1519.692,-238 1519.692,-238"/>
<polygon fill="#000000" stroke="#000000" points="1519.6921,-234.5001 1509.692,-238 1519.692,-241.5001 1519.6921,-234.5001"/>
</g>
<!-- MapExampleComponent -->
<g id="node5" class="node">
<title>MapExampleComponent</title>
<polygon fill="#ffffb3" stroke="#000000" points="2327.2548,-187 2170.7452,-187 2170.7452,-151 2327.2548,-151 2327.2548,-187"/>
<text text-anchor="middle" x="2249" y="-164.8" font-family="Times,serif" font-size="14.00" fill="#000000">MapExampleComponent</text>
</g>
<!-- MapExampleComponent&#45;&gt;AppModule -->
<g id="edge6" class="edge">
<title>MapExampleComponent&#45;&gt;AppModule</title>
<path fill="none" stroke="#000000" d="M2249,-187.1061C2249,-206.3391 2249,-234 2249,-234 2249,-234 1519.7138,-234 1519.7138,-234"/>
<polygon fill="#000000" stroke="#000000" points="1519.7139,-230.5001 1509.7138,-234 1519.7138,-237.5001 1519.7139,-230.5001"/>
</g>
<!-- NotFoundComponent -->
<g id="node6" class="node">
<title>NotFoundComponent</title>
<polygon fill="#ffffb3" stroke="#000000" points="2153.1122,-187 2014.8878,-187 2014.8878,-151 2153.1122,-151 2153.1122,-187"/>
<text text-anchor="middle" x="2084" y="-164.8" font-family="Times,serif" font-size="14.00" fill="#000000">NotFoundComponent</text>
</g>
<!-- NotFoundComponent&#45;&gt;AppModule -->
<g id="edge7" class="edge">
<title>NotFoundComponent&#45;&gt;AppModule</title>
<path fill="none" stroke="#000000" d="M2084,-187.2667C2084,-205.5552 2084,-231 2084,-231 2084,-231 1519.8559,-231 1519.8559,-231"/>
<polygon fill="#000000" stroke="#000000" points="1519.8559,-227.5001 1509.8559,-231 1519.8559,-234.5001 1519.8559,-227.5001"/>
</g>
<!-- DashboardComponent -->
<g id="node7" class="node">
<title>DashboardComponent</title>
<polygon fill="#ffffb3" stroke="#000000" points="1996.9734,-187 1855.0266,-187 1855.0266,-151 1996.9734,-151 1996.9734,-187"/>
<text text-anchor="middle" x="1926" y="-164.8" font-family="Times,serif" font-size="14.00" fill="#000000">DashboardComponent</text>
</g>
<!-- DashboardComponent&#45;&gt;AppModule -->
<g id="edge8" class="edge">
<title>DashboardComponent&#45;&gt;AppModule</title>
<path fill="none" stroke="#000000" d="M1926,-187.0336C1926,-204.0597 1926,-227 1926,-227 1926,-227 1519.8586,-227 1519.8586,-227"/>
<polygon fill="#000000" stroke="#000000" points="1519.8586,-223.5001 1509.8586,-227 1519.8586,-230.5001 1519.8586,-223.5001"/>
</g>
<!-- SettingsComponent -->
<g id="node8" class="node">
<title>SettingsComponent</title>
<polygon fill="#ffffb3" stroke="#000000" points="1837.4468,-187 1710.5532,-187 1710.5532,-151 1837.4468,-151 1837.4468,-187"/>
<text text-anchor="middle" x="1774" y="-164.8" font-family="Times,serif" font-size="14.00" fill="#000000">SettingsComponent</text>
</g>
<!-- SettingsComponent&#45;&gt;AppModule -->
<g id="edge9" class="edge">
<title>SettingsComponent&#45;&gt;AppModule</title>
<path fill="none" stroke="#000000" d="M1774,-187.0091C1774,-203.0494 1774,-224 1774,-224 1774,-224 1519.9064,-224 1519.9064,-224"/>
<polygon fill="#000000" stroke="#000000" points="1519.9064,-220.5001 1509.9064,-224 1519.9063,-227.5001 1519.9064,-220.5001"/>
</g>
<!-- ProjectsComponent -->
<g id="node9" class="node">
<title>ProjectsComponent</title>
<polygon fill="#ffffb3" stroke="#000000" points="1693.4313,-187 1566.5687,-187 1566.5687,-151 1693.4313,-151 1693.4313,-187"/>
<text text-anchor="middle" x="1630" y="-164.8" font-family="Times,serif" font-size="14.00" fill="#000000">ProjectsComponent</text>
</g>
<!-- ProjectsComponent&#45;&gt;AppModule -->
<g id="edge10" class="edge">
<title>ProjectsComponent&#45;&gt;AppModule</title>
<path fill="none" stroke="#000000" d="M1630,-187.1243C1630,-201.7832 1630,-220 1630,-220 1630,-220 1519.719,-220 1519.719,-220"/>
<polygon fill="#000000" stroke="#000000" points="1519.7191,-216.5001 1509.719,-220 1519.719,-223.5001 1519.7191,-216.5001"/>
</g>
<!-- ProjectDetailsComponent -->
<g id="node10" class="node">
<title>ProjectDetailsComponent</title>
<polygon fill="#ffffb3" stroke="#000000" points="1548.1386,-187 1387.8614,-187 1387.8614,-151 1548.1386,-151 1548.1386,-187"/>
<text text-anchor="middle" x="1468" y="-164.8" font-family="Times,serif" font-size="14.00" fill="#000000">ProjectDetailsComponent</text>
</g>
<!-- ProjectDetailsComponent&#45;&gt;AppModule -->
<g id="edge11" class="edge">
<title>ProjectDetailsComponent&#45;&gt;AppModule</title>
<path fill="none" stroke="#000000" d="M1468,-187.1061C1468,-187.1061 1468,-205.991 1468,-205.991"/>
<polygon fill="#000000" stroke="#000000" points="1464.5001,-205.9909 1468,-215.991 1471.5001,-205.991 1464.5001,-205.9909"/>
</g>
<!-- ProjectCardComponent -->
<g id="node11" class="node">
<title>ProjectCardComponent</title>
<polygon fill="#ffffb3" stroke="#000000" points="1370.1979,-187 1221.8021,-187 1221.8021,-151 1370.1979,-151 1370.1979,-187"/>
<text text-anchor="middle" x="1296" y="-164.8" font-family="Times,serif" font-size="14.00" fill="#000000">ProjectCardComponent</text>
</g>
<!-- ProjectCardComponent&#45;&gt;AppModule -->
<g id="edge12" class="edge">
<title>ProjectCardComponent&#45;&gt;AppModule</title>
<path fill="none" stroke="#000000" d="M1296,-187.1243C1296,-201.7832 1296,-220 1296,-220 1296,-220 1415.9241,-220 1415.9241,-220"/>
<polygon fill="#000000" stroke="#000000" points="1415.9241,-223.5001 1425.9241,-220 1415.924,-216.5001 1415.9241,-223.5001"/>
</g>
<!-- AppComponent  -->
<g id="node22" class="node">
<title>AppComponent </title>
<polygon fill="#80b1d3" stroke="#000000" points="1522.439,-317 1413.561,-317 1413.561,-281 1522.439,-281 1522.439,-317"/>
<text text-anchor="middle" x="1468" y="-294.8" font-family="Times,serif" font-size="14.00" fill="#000000">AppComponent </text>
</g>
<!-- AppModule&#45;&gt;AppComponent  -->
<g id="edge21" class="edge">
<title>AppModule&#45;&gt;AppComponent </title>
<path fill="none" stroke="#000000" stroke-dasharray="1,5" d="M1468,-252.1061C1468,-252.1061 1468,-270.991 1468,-270.991"/>
<polygon fill="#000000" stroke="#000000" points="1464.5001,-270.9909 1468,-280.991 1471.5001,-270.991 1464.5001,-270.9909"/>
</g>
<!-- ProjectsService -->
<g id="node13" class="node">
<title>ProjectsService</title>
<ellipse fill="#fdb462" stroke="#000000" cx="2796" cy="-104" rx="71.1998" ry="18"/>
<text text-anchor="middle" x="2796" y="-99.8" font-family="Times,serif" font-size="14.00" fill="#000000">ProjectsService</text>
</g>
<!-- ProjectsService&#45;&gt;AppComponent -->
<g id="edge2" class="edge">
<title>ProjectsService&#45;&gt;AppComponent</title>
<path fill="none" stroke="#000000" d="M2814,-121.4188C2814,-121.4188 2814,-140.6234 2814,-140.6234"/>
<polygon fill="#000000" stroke="#000000" points="2810.5001,-140.6234 2814,-150.6234 2817.5001,-140.6234 2810.5001,-140.6234"/>
</g>
<!-- BrowserModule -->
<g id="node14" class="node">
<title>BrowserModule</title>
<polygon fill="#8dd3c7" stroke="#000000" points="1198.4734,-187 1195.4734,-191 1174.4734,-191 1171.4734,-187 1091.5266,-187 1091.5266,-151 1198.4734,-151 1198.4734,-187"/>
<text text-anchor="middle" x="1145" y="-164.8" font-family="Times,serif" font-size="14.00" fill="#000000">BrowserModule</text>
</g>
<!-- BrowserModule&#45;&gt;AppModule -->
<g id="edge13" class="edge">
<title>BrowserModule&#45;&gt;AppModule</title>
<path fill="none" stroke="#000000" d="M1145,-187.0091C1145,-203.0494 1145,-224 1145,-224 1145,-224 1416.1045,-224 1416.1045,-224"/>
<polygon fill="#000000" stroke="#000000" points="1416.1046,-227.5001 1426.1045,-224 1416.1045,-220.5001 1416.1046,-227.5001"/>
</g>
<!-- BrowserAnimationsModule -->
<g id="node15" class="node">
<title>BrowserAnimationsModule</title>
<polygon fill="#8dd3c7" stroke="#000000" points="1073.3019,-187 1070.3019,-191 1049.3019,-191 1046.3019,-187 900.6981,-187 900.6981,-151 1073.3019,-151 1073.3019,-187"/>
<text text-anchor="middle" x="987" y="-164.8" font-family="Times,serif" font-size="14.00" fill="#000000">BrowserAnimationsModule</text>
</g>
<!-- BrowserAnimationsModule&#45;&gt;AppModule -->
<g id="edge14" class="edge">
<title>BrowserAnimationsModule&#45;&gt;AppModule</title>
<path fill="none" stroke="#000000" d="M987,-187.0336C987,-204.0597 987,-227 987,-227 987,-227 1416.1558,-227 1416.1558,-227"/>
<polygon fill="#000000" stroke="#000000" points="1416.1559,-230.5001 1426.1558,-227 1416.1558,-223.5001 1416.1559,-230.5001"/>
</g>
<!-- CommonModule -->
<g id="node16" class="node">
<title>CommonModule</title>
<polygon fill="#8dd3c7" stroke="#000000" points="882.6681,-187 879.6681,-191 858.6681,-191 855.6681,-187 771.3319,-187 771.3319,-151 882.6681,-151 882.6681,-187"/>
<text text-anchor="middle" x="827" y="-164.8" font-family="Times,serif" font-size="14.00" fill="#000000">CommonModule</text>
</g>
<!-- CommonModule&#45;&gt;AppModule -->
<g id="edge15" class="edge">
<title>CommonModule&#45;&gt;AppModule</title>
<path fill="none" stroke="#000000" d="M827,-187.2667C827,-205.5552 827,-231 827,-231 827,-231 1415.9422,-231 1415.9422,-231"/>
<polygon fill="#000000" stroke="#000000" points="1415.9422,-234.5001 1425.9422,-231 1415.9422,-227.5001 1415.9422,-234.5001"/>
</g>
<!-- ClarityModule.forRoot() -->
<g id="node17" class="node">
<title>ClarityModule.forRoot()</title>
<polygon fill="#8dd3c7" stroke="#000000" points="753.3031,-187 750.3031,-191 729.3031,-191 726.3031,-187 598.6969,-187 598.6969,-151 753.3031,-151 753.3031,-187"/>
<text text-anchor="middle" x="676" y="-164.8" font-family="Times,serif" font-size="14.00" fill="#000000">ClarityModule.forRoot()</text>
</g>
<!-- ClarityModule.forRoot()&#45;&gt;AppModule -->
<g id="edge16" class="edge">
<title>ClarityModule.forRoot()&#45;&gt;AppModule</title>
<path fill="none" stroke="#000000" d="M676,-187.1061C676,-206.3391 676,-234 676,-234 676,-234 1416.2562,-234 1416.2562,-234"/>
<polygon fill="#000000" stroke="#000000" points="1416.2562,-237.5001 1426.2562,-234 1416.2562,-230.5001 1416.2562,-237.5001"/>
</g>
<!-- FormsModule -->
<g id="node18" class="node">
<title>FormsModule</title>
<polygon fill="#8dd3c7" stroke="#000000" points="580.8288,-187 577.8288,-191 556.8288,-191 553.8288,-187 485.1712,-187 485.1712,-151 580.8288,-151 580.8288,-187"/>
<text text-anchor="middle" x="533" y="-164.8" font-family="Times,serif" font-size="14.00" fill="#000000">FormsModule</text>
</g>
<!-- FormsModule&#45;&gt;AppModule -->
<g id="edge17" class="edge">
<title>FormsModule&#45;&gt;AppModule</title>
<path fill="none" stroke="#000000" d="M533,-187.1289C533,-207.5724 533,-238 533,-238 533,-238 1416.3137,-238 1416.3137,-238"/>
<polygon fill="#000000" stroke="#000000" points="1416.3137,-241.5001 1426.3137,-238 1416.3136,-234.5001 1416.3137,-241.5001"/>
</g>
<!-- HttpModule -->
<g id="node19" class="node">
<title>HttpModule</title>
<polygon fill="#8dd3c7" stroke="#000000" points="467.4387,-187 464.4387,-191 443.4387,-191 440.4387,-187 382.5613,-187 382.5613,-151 467.4387,-151 467.4387,-187"/>
<text text-anchor="middle" x="425" y="-164.8" font-family="Times,serif" font-size="14.00" fill="#000000">HttpModule</text>
</g>
<!-- HttpModule&#45;&gt;AppModule -->
<g id="edge18" class="edge">
<title>HttpModule&#45;&gt;AppModule</title>
<path fill="none" stroke="#000000" d="M425,-187.0449C425,-208.6623 425,-242 425,-242 425,-242 1416.146,-242 1416.146,-242"/>
<polygon fill="#000000" stroke="#000000" points="1416.1461,-245.5001 1426.146,-242 1416.146,-238.5001 1416.1461,-245.5001"/>
</g>
<!-- AgmCoreModule.forRoot(args) -->
<g id="node20" class="node">
<title>AgmCoreModule.forRoot(args)</title>
<polygon fill="#8dd3c7" stroke="#000000" points="365.4487,-187 362.4487,-191 341.4487,-191 338.4487,-187 170.5513,-187 170.5513,-151 365.4487,-151 365.4487,-187"/>
<text text-anchor="middle" x="268" y="-164.8" font-family="Times,serif" font-size="14.00" fill="#000000">AgmCoreModule.forRoot(args)</text>
</g>
<!-- AgmCoreModule.forRoot(args)&#45;&gt;AppModule -->
<g id="edge19" class="edge">
<title>AgmCoreModule.forRoot(args)&#45;&gt;AppModule</title>
<path fill="none" stroke="#000000" d="M268,-187.0109C268,-209.4852 268,-245 268,-245 268,-245 1415.995,-245 1415.995,-245"/>
<polygon fill="#000000" stroke="#000000" points="1415.995,-248.5001 1425.995,-245 1415.995,-241.5001 1415.995,-248.5001"/>
</g>
<!-- AppRoutingModule -->
<g id="node21" class="node">
<title>AppRoutingModule</title>
<polygon fill="#8dd3c7" stroke="#000000" points="152.2744,-187 149.2744,-191 128.2744,-191 125.2744,-187 23.7256,-187 23.7256,-151 152.2744,-151 152.2744,-187"/>
<text text-anchor="middle" x="88" y="-164.8" font-family="Times,serif" font-size="14.00" fill="#000000">AppRoutingModule</text>
</g>
<!-- AppRoutingModule&#45;&gt;AppModule -->
<g id="edge20" class="edge">
<title>AppRoutingModule&#45;&gt;AppModule</title>
<path fill="none" stroke="#000000" d="M88,-187.1532C88,-210.7566 88,-249 88,-249 88,-249 1416.3234,-249 1416.3234,-249"/>
<polygon fill="#000000" stroke="#000000" points="1416.3234,-252.5001 1426.3234,-249 1416.3233,-245.5001 1416.3234,-252.5001"/>
</g>
</g>
</svg>
