<?xml version="1.0" encoding="UTF-8" standalone="no"?>
<!DOCTYPE svg PUBLIC "-//W3C//DTD SVG 1.1//EN"
 "http://www.w3.org/Graphics/SVG/1.1/DTD/svg11.dtd">
<!-- Generated by graphviz version 2.40.1 (20161225.0304)
 -->
<!-- Title: dependencies Pages: 1 -->
<svg width="1574pt" height="290pt"
 viewBox="0.00 0.00 1574.00 290.00" xmlns="http://www.w3.org/2000/svg" xmlns:xlink="http://www.w3.org/1999/xlink">
<g id="graph0" class="graph" transform="scale(1 1) rotate(0) translate(4 286)">
<title>dependencies</title>
<polygon fill="#ffffff" stroke="transparent" points="-4,4 -4,-286 1570,-286 1570,4 -4,4"/>
<text text-anchor="start" x="762.0091" y="-42.4" font-family="sans-serif" font-weight="bold" font-size="14.00" fill="#000000">Legend</text>
<polygon fill="#ffffb3" stroke="transparent" points="549,-10 549,-30 569,-30 569,-10 549,-10"/>
<text text-anchor="start" x="572.629" y="-15.4" font-family="sans-serif" font-size="14.00" fill="#000000"> &#160;Declarations</text>
<polygon fill="#8dd3c7" stroke="transparent" points="662,-10 662,-30 682,-30 682,-10 662,-10"/>
<text text-anchor="start" x="685.7251" y="-15.4" font-family="sans-serif" font-size="14.00" fill="#000000"> &#160;Module</text>
<polygon fill="#80b1d3" stroke="transparent" points="748,-10 748,-30 768,-30 768,-10 748,-10"/>
<text text-anchor="start" x="771.7812" y="-15.4" font-family="sans-serif" font-size="14.00" fill="#000000"> &#160;Bootstrap</text>
<polygon fill="#fdb462" stroke="transparent" points="845,-10 845,-30 865,-30 865,-10 845,-10"/>
<text text-anchor="start" x="868.6732" y="-15.4" font-family="sans-serif" font-size="14.00" fill="#000000"> &#160;Providers</text>
<polygon fill="#fb8072" stroke="transparent" points="941,-10 941,-30 961,-30 961,-10 941,-10"/>
<text text-anchor="start" x="964.7258" y="-15.4" font-family="sans-serif" font-size="14.00" fill="#000000"> &#160;Exports</text>
<g id="clust1" class="cluster">
<title>cluster_AppModule</title>
<polygon fill="none" stroke="#000000" stroke-dasharray="1,5" points="8,-70 8,-274 1214,-274 1214,-70 8,-70"/>
</g>
<g id="clust3" class="cluster">
<title>cluster_AppModule_imports</title>
<polygon fill="none" stroke="#000000" points="16,-78 16,-130 1206,-130 1206,-78 16,-78"/>
</g>
<g id="clust5" class="cluster">
<title>cluster_AppModule_bootstrap</title>
<polygon fill="none" stroke="#000000" points="542,-214 542,-266 666,-266 666,-214 542,-214"/>
</g>
<g id="clust7" class="cluster">
<title>cluster_AppRoutingModule</title>
<polygon fill="none" stroke="#000000" stroke-dasharray="1,5" points="1222,-138 1222,-206 1558,-206 1558,-138 1222,-138"/>
</g>
<g id="clust9" class="cluster">
<title>cluster_AppRoutingModule_imports</title>
<polygon fill="none" stroke="#000000" points="1356,-146 1356,-198 1550,-198 1550,-146 1356,-146"/>
</g>
<g id="clust10" class="cluster">
<title>cluster_AppRoutingModule_exports</title>
<polygon fill="none" stroke="#000000" points="1230,-146 1230,-198 1348,-198 1348,-146 1230,-146"/>
</g>
<!-- BrowserModule -->
<g id="node1" class="node">
<title>BrowserModule</title>
<polygon fill="#8dd3c7" stroke="#000000" points="1051.4734,-122 1048.4734,-126 1027.4734,-126 1024.4734,-122 944.5266,-122 944.5266,-86 1051.4734,-86 1051.4734,-122"/>
<text text-anchor="middle" x="998" y="-99.8" font-family="Times,serif" font-size="14.00" fill="#000000">BrowserModule</text>
</g>
<!-- AppModule -->
<g id="node9" class="node">
<title>AppModule</title>
<polygon fill="#8dd3c7" stroke="#000000" points="645.6571,-190 642.6571,-194 621.6571,-194 618.6571,-190 562.3429,-190 562.3429,-154 645.6571,-154 645.6571,-190"/>
<text text-anchor="middle" x="604" y="-167.8" font-family="Times,serif" font-size="14.00" fill="#000000">AppModule</text>
</g>
<!-- BrowserModule&#45;&gt;AppModule -->
<g id="edge1" class="edge">
<title>BrowserModule&#45;&gt;AppModule</title>
<path fill="none" stroke="#000000" d="M998,-122.2228C998,-142.3652 998,-172 998,-172 998,-172 655.7919,-172 655.7919,-172"/>
<polygon fill="#000000" stroke="#000000" points="655.7919,-168.5001 645.7919,-172 655.7919,-175.5001 655.7919,-168.5001"/>
</g>
<!-- BrowserAnimationsModule -->
<g id="node2" class="node">
<title>BrowserAnimationsModule</title>
<polygon fill="#8dd3c7" stroke="#000000" points="926.3019,-122 923.3019,-126 902.3019,-126 899.3019,-122 753.6981,-122 753.6981,-86 926.3019,-86 926.3019,-122"/>
<text text-anchor="middle" x="840" y="-99.8" font-family="Times,serif" font-size="14.00" fill="#000000">BrowserAnimationsModule</text>
</g>
<!-- BrowserAnimationsModule&#45;&gt;AppModule -->
<g id="edge2" class="edge">
<title>BrowserAnimationsModule&#45;&gt;AppModule</title>
<path fill="none" stroke="#000000" d="M840,-122.0225C840,-139.3734 840,-163 840,-163 840,-163 655.9201,-163 655.9201,-163"/>
<polygon fill="#000000" stroke="#000000" points="655.9202,-159.5001 645.9201,-163 655.9201,-166.5001 655.9202,-159.5001"/>
</g>
<!-- CommonModule -->
<g id="node3" class="node">
<title>CommonModule</title>
<polygon fill="#8dd3c7" stroke="#000000" points="735.6681,-122 732.6681,-126 711.6681,-126 708.6681,-122 624.3319,-122 624.3319,-86 735.6681,-86 735.6681,-122"/>
<text text-anchor="middle" x="680" y="-99.8" font-family="Times,serif" font-size="14.00" fill="#000000">CommonModule</text>
</g>
<!-- CommonModule&#45;&gt;AppModule -->
<g id="edge3" class="edge">
<title>CommonModule&#45;&gt;AppModule</title>
<path fill="none" stroke="#000000" d="M634.9972,-122.2228C634.9972,-122.2228 634.9972,-143.7269 634.9972,-143.7269"/>
<polygon fill="#000000" stroke="#000000" points="631.4973,-143.7269 634.9972,-153.7269 638.4973,-143.727 631.4973,-143.7269"/>
</g>
<!-- ClarityModule.forRoot() -->
<g id="node4" class="node">
<title>ClarityModule.forRoot()</title>
<polygon fill="#8dd3c7" stroke="#000000" points="606.3031,-122 603.3031,-126 582.3031,-126 579.3031,-122 451.6969,-122 451.6969,-86 606.3031,-86 606.3031,-122"/>
<text text-anchor="middle" x="529" y="-99.8" font-family="Times,serif" font-size="14.00" fill="#000000">ClarityModule.forRoot()</text>
</g>
<!-- ClarityModule.forRoot()&#45;&gt;AppModule -->
<g id="edge4" class="edge">
<title>ClarityModule.forRoot()&#45;&gt;AppModule</title>
<path fill="none" stroke="#000000" d="M584.2867,-122.2228C584.2867,-122.2228 584.2867,-143.7269 584.2867,-143.7269"/>
<polygon fill="#000000" stroke="#000000" points="580.7867,-143.7269 584.2867,-153.7269 587.7867,-143.727 580.7867,-143.7269"/>
</g>
<!-- FormsModule -->
<g id="node5" class="node">
<title>FormsModule</title>
<polygon fill="#8dd3c7" stroke="#000000" points="433.8288,-122 430.8288,-126 409.8288,-126 406.8288,-122 338.1712,-122 338.1712,-86 433.8288,-86 433.8288,-122"/>
<text text-anchor="middle" x="386" y="-99.8" font-family="Times,serif" font-size="14.00" fill="#000000">FormsModule</text>
</g>
<!-- FormsModule&#45;&gt;AppModule -->
<g id="edge5" class="edge">
<title>FormsModule&#45;&gt;AppModule</title>
<path fill="none" stroke="#000000" d="M386,-122.0225C386,-139.3734 386,-163 386,-163 386,-163 552.2253,-163 552.2253,-163"/>
<polygon fill="#000000" stroke="#000000" points="552.2254,-166.5001 562.2253,-163 552.2253,-159.5001 552.2254,-166.5001"/>
</g>
<!-- HttpModule -->
<g id="node6" class="node">
<title>HttpModule</title>
<polygon fill="#8dd3c7" stroke="#000000" points="320.4387,-122 317.4387,-126 296.4387,-126 293.4387,-122 235.5613,-122 235.5613,-86 320.4387,-86 320.4387,-122"/>
<text text-anchor="middle" x="278" y="-99.8" font-family="Times,serif" font-size="14.00" fill="#000000">HttpModule</text>
</g>
<!-- HttpModule&#45;&gt;AppModule -->
<g id="edge6" class="edge">
<title>HttpModule&#45;&gt;AppModule</title>
<path fill="none" stroke="#000000" d="M278,-122.2228C278,-142.3652 278,-172 278,-172 278,-172 552.0486,-172 552.0486,-172"/>
<polygon fill="#000000" stroke="#000000" points="552.0486,-175.5001 562.0486,-172 552.0486,-168.5001 552.0486,-175.5001"/>
</g>
<!-- AgmCoreModule.forRoot(args) -->
<g id="node7" class="node">
<title>AgmCoreModule.forRoot(args)</title>
<polygon fill="#8dd3c7" stroke="#000000" points="218.4487,-122 215.4487,-126 194.4487,-126 191.4487,-122 23.5513,-122 23.5513,-86 218.4487,-86 218.4487,-122"/>
<text text-anchor="middle" x="121" y="-99.8" font-family="Times,serif" font-size="14.00" fill="#000000">AgmCoreModule.forRoot(args)</text>
</g>
<!-- AgmCoreModule.forRoot(args)&#45;&gt;AppModule -->
<g id="edge7" class="edge">
<title>AgmCoreModule.forRoot(args)&#45;&gt;AppModule</title>
<path fill="none" stroke="#000000" d="M121,-122.2479C121,-145.0179 121,-181 121,-181 121,-181 551.9819,-181 551.9819,-181"/>
<polygon fill="#000000" stroke="#000000" points="551.9819,-184.5001 561.9819,-181 551.9818,-177.5001 551.9819,-184.5001"/>
</g>
<!-- AppRoutingModule -->
<g id="node8" class="node">
<title>AppRoutingModule</title>
<polygon fill="#8dd3c7" stroke="#000000" points="1198.2744,-122 1195.2744,-126 1174.2744,-126 1171.2744,-122 1069.7256,-122 1069.7256,-86 1198.2744,-86 1198.2744,-122"/>
<text text-anchor="middle" x="1134" y="-99.8" font-family="Times,serif" font-size="14.00" fill="#000000">AppRoutingModule</text>
</g>
<!-- AppRoutingModule&#45;&gt;AppModule -->
<g id="edge8" class="edge">
<title>AppRoutingModule&#45;&gt;AppModule</title>
<path fill="none" stroke="#000000" d="M1134,-122.2479C1134,-145.0179 1134,-181 1134,-181 1134,-181 656.0312,-181 656.0312,-181"/>
<polygon fill="#000000" stroke="#000000" points="656.0313,-177.5001 646.0312,-181 656.0312,-184.5001 656.0313,-177.5001"/>
</g>
<!-- RouterModule  -->
<g id="node12" class="node">
<title>RouterModule </title>
<polygon fill="#fb8072" stroke="#000000" points="1339.6523,-190 1238.3477,-190 1238.3477,-154 1339.6523,-154 1339.6523,-190"/>
<text text-anchor="middle" x="1289" y="-167.8" font-family="Times,serif" font-size="14.00" fill="#000000">RouterModule </text>
</g>
<!-- AppRoutingModule&#45;&gt;RouterModule  -->
<g id="edge11" class="edge">
<title>AppRoutingModule&#45;&gt;RouterModule </title>
<path fill="none" stroke="#000000" stroke-dasharray="5,2" d="M1198.3874,-110C1240.9734,-110 1289,-110 1289,-110 1289,-110 1289,-143.7333 1289,-143.7333"/>
<polygon fill="#000000" stroke="#000000" points="1285.5001,-143.7333 1289,-153.7333 1292.5001,-143.7333 1285.5001,-143.7333"/>
</g>
<!-- AppComponent  -->
<g id="node10" class="node">
<title>AppComponent </title>
<polygon fill="#80b1d3" stroke="#000000" points="658.439,-258 549.561,-258 549.561,-222 658.439,-222 658.439,-258"/>
<text text-anchor="middle" x="604" y="-235.8" font-family="Times,serif" font-size="14.00" fill="#000000">AppComponent </text>
</g>
<!-- AppModule&#45;&gt;AppComponent  -->
<g id="edge9" class="edge">
<title>AppModule&#45;&gt;AppComponent </title>
<path fill="none" stroke="#000000" stroke-dasharray="1,5" d="M604,-190.2228C604,-190.2228 604,-211.7269 604,-211.7269"/>
<polygon fill="#000000" stroke="#000000" points="600.5001,-211.7269 604,-221.7269 607.5001,-211.727 600.5001,-211.7269"/>
</g>
<!-- RouterModule.forRoot(args) -->
<g id="node11" class="node">
<title>RouterModule.forRoot(args)</title>
<polygon fill="#8dd3c7" stroke="#000000" points="1541.8419,-190 1538.8419,-194 1517.8419,-194 1514.8419,-190 1364.1581,-190 1364.1581,-154 1541.8419,-154 1541.8419,-190"/>
<text text-anchor="middle" x="1453" y="-167.8" font-family="Times,serif" font-size="14.00" fill="#000000">RouterModule.forRoot(args)</text>
</g>
<!-- RouterModule.forRoot(args)&#45;&gt;AppRoutingModule -->
<g id="edge10" class="edge">
<title>RouterModule.forRoot(args)&#45;&gt;AppRoutingModule</title>
<path fill="none" stroke="#000000" d="M1453,-153.7079C1453,-131.7943 1453,-98 1453,-98 1453,-98 1208.5544,-98 1208.5544,-98"/>
<polygon fill="#000000" stroke="#000000" points="1208.5544,-94.5001 1198.5544,-98 1208.5544,-101.5001 1208.5544,-94.5001"/>
</g>
</g>
</svg>
