<?xml version="1.0" encoding="UTF-8" standalone="no"?>
<!DOCTYPE svg PUBLIC "-//W3C//DTD SVG 1.1//EN"
 "http://www.w3.org/Graphics/SVG/1.1/DTD/svg11.dtd">
<!-- Generated by graphviz version 2.40.1 (20161225.0304)
 -->
<!-- Title: dependencies Pages: 1 -->
<svg width="869pt" height="290pt"
 viewBox="0.00 0.00 869.00 290.00" xmlns="http://www.w3.org/2000/svg" xmlns:xlink="http://www.w3.org/1999/xlink">
<g id="graph0" class="graph" transform="scale(1 1) rotate(0) translate(4 286)">
<title>dependencies</title>
<polygon fill="#ffffff" stroke="transparent" points="-4,4 -4,-286 865,-286 865,4 -4,4"/>
<text text-anchor="start" x="409.5091" y="-42.4" font-family="sans-serif" font-weight="bold" font-size="14.00" fill="#000000">Legend</text>
<polygon fill="#ffffb3" stroke="transparent" points="196.5,-10 196.5,-30 216.5,-30 216.5,-10 196.5,-10"/>
<text text-anchor="start" x="220.129" y="-15.4" font-family="sans-serif" font-size="14.00" fill="#000000"> &#160;Declarations</text>
<polygon fill="#8dd3c7" stroke="transparent" points="309.5,-10 309.5,-30 329.5,-30 329.5,-10 309.5,-10"/>
<text text-anchor="start" x="333.2251" y="-15.4" font-family="sans-serif" font-size="14.00" fill="#000000"> &#160;Module</text>
<polygon fill="#80b1d3" stroke="transparent" points="395.5,-10 395.5,-30 415.5,-30 415.5,-10 395.5,-10"/>
<text text-anchor="start" x="419.2812" y="-15.4" font-family="sans-serif" font-size="14.00" fill="#000000"> &#160;Bootstrap</text>
<polygon fill="#fdb462" stroke="transparent" points="492.5,-10 492.5,-30 512.5,-30 512.5,-10 492.5,-10"/>
<text text-anchor="start" x="516.1732" y="-15.4" font-family="sans-serif" font-size="14.00" fill="#000000"> &#160;Providers</text>
<polygon fill="#fb8072" stroke="transparent" points="588.5,-10 588.5,-30 608.5,-30 608.5,-10 588.5,-10"/>
<text text-anchor="start" x="612.2258" y="-15.4" font-family="sans-serif" font-size="14.00" fill="#000000"> &#160;Exports</text>
<g id="clust1" class="cluster">
<title>cluster_AppModule</title>
<polygon fill="none" stroke="#000000" stroke-dasharray="1,5" points="8,-70 8,-274 509,-274 509,-70 8,-70"/>
</g>
<g id="clust3" class="cluster">
<title>cluster_AppModule_imports</title>
<polygon fill="none" stroke="#000000" points="16,-78 16,-130 501,-130 501,-78 16,-78"/>
</g>
<g id="clust5" class="cluster">
<title>cluster_AppModule_bootstrap</title>
<polygon fill="none" stroke="#000000" points="171,-214 171,-266 295,-266 295,-214 171,-214"/>
</g>
<g id="clust7" class="cluster">
<title>cluster_AppRoutingModule</title>
<polygon fill="none" stroke="#000000" stroke-dasharray="1,5" points="517,-138 517,-206 853,-206 853,-138 517,-138"/>
</g>
<g id="clust9" class="cluster">
<title>cluster_AppRoutingModule_imports</title>
<polygon fill="none" stroke="#000000" points="651,-146 651,-198 845,-198 845,-146 651,-146"/>
</g>
<g id="clust10" class="cluster">
<title>cluster_AppRoutingModule_exports</title>
<polygon fill="none" stroke="#000000" points="525,-146 525,-198 643,-198 643,-146 525,-146"/>
</g>
<!-- BrowserModule -->
<g id="node1" class="node">
<title>BrowserModule</title>
<polygon fill="#8dd3c7" stroke="#000000" points="346.4734,-122 343.4734,-126 322.4734,-126 319.4734,-122 239.5266,-122 239.5266,-86 346.4734,-86 346.4734,-122"/>
<text text-anchor="middle" x="293" y="-99.8" font-family="Times,serif" font-size="14.00" fill="#000000">BrowserModule</text>
</g>
<!-- AppModule -->
<g id="node5" class="node">
<title>AppModule</title>
<polygon fill="#8dd3c7" stroke="#000000" points="274.6571,-190 271.6571,-194 250.6571,-194 247.6571,-190 191.3429,-190 191.3429,-154 274.6571,-154 274.6571,-190"/>
<text text-anchor="middle" x="233" y="-167.8" font-family="Times,serif" font-size="14.00" fill="#000000">AppModule</text>
</g>
<!-- BrowserModule&#45;&gt;AppModule -->
<g id="edge1" class="edge">
<title>BrowserModule&#45;&gt;AppModule</title>
<path fill="none" stroke="#000000" d="M257.1708,-122.2228C257.1708,-122.2228 257.1708,-143.7269 257.1708,-143.7269"/>
<polygon fill="#000000" stroke="#000000" points="253.6708,-143.7269 257.1708,-153.7269 260.6708,-143.727 253.6708,-143.7269"/>
</g>
<!-- FormsModule -->
<g id="node2" class="node">
<title>FormsModule</title>
<polygon fill="#8dd3c7" stroke="#000000" points="221.8288,-122 218.8288,-126 197.8288,-126 194.8288,-122 126.1712,-122 126.1712,-86 221.8288,-86 221.8288,-122"/>
<text text-anchor="middle" x="174" y="-99.8" font-family="Times,serif" font-size="14.00" fill="#000000">FormsModule</text>
</g>
<!-- FormsModule&#45;&gt;AppModule -->
<g id="edge2" class="edge">
<title>FormsModule&#45;&gt;AppModule</title>
<path fill="none" stroke="#000000" d="M206.418,-122.2228C206.418,-122.2228 206.418,-143.7269 206.418,-143.7269"/>
<polygon fill="#000000" stroke="#000000" points="202.918,-143.7269 206.418,-153.7269 209.918,-143.727 202.918,-143.7269"/>
</g>
<!-- HttpModule -->
<g id="node3" class="node">
<title>HttpModule</title>
<polygon fill="#8dd3c7" stroke="#000000" points="108.4387,-122 105.4387,-126 84.4387,-126 81.4387,-122 23.5613,-122 23.5613,-86 108.4387,-86 108.4387,-122"/>
<text text-anchor="middle" x="66" y="-99.8" font-family="Times,serif" font-size="14.00" fill="#000000">HttpModule</text>
</g>
<!-- HttpModule&#45;&gt;AppModule -->
<g id="edge3" class="edge">
<title>HttpModule&#45;&gt;AppModule</title>
<path fill="none" stroke="#000000" d="M66,-122.2228C66,-142.3652 66,-172 66,-172 66,-172 181.2896,-172 181.2896,-172"/>
<polygon fill="#000000" stroke="#000000" points="181.2897,-175.5001 191.2896,-172 181.2896,-168.5001 181.2897,-175.5001"/>
</g>
<!-- AppRoutingModule -->
<g id="node4" class="node">
<title>AppRoutingModule</title>
<polygon fill="#8dd3c7" stroke="#000000" points="493.2744,-122 490.2744,-126 469.2744,-126 466.2744,-122 364.7256,-122 364.7256,-86 493.2744,-86 493.2744,-122"/>
<text text-anchor="middle" x="429" y="-99.8" font-family="Times,serif" font-size="14.00" fill="#000000">AppRoutingModule</text>
</g>
<!-- AppRoutingModule&#45;&gt;AppModule -->
<g id="edge4" class="edge">
<title>AppRoutingModule&#45;&gt;AppModule</title>
<path fill="none" stroke="#000000" d="M429,-122.2228C429,-142.3652 429,-172 429,-172 429,-172 285.0469,-172 285.0469,-172"/>
<polygon fill="#000000" stroke="#000000" points="285.047,-168.5001 275.0469,-172 285.0469,-175.5001 285.047,-168.5001"/>
</g>
<!-- RouterModule  -->
<g id="node8" class="node">
<title>RouterModule </title>
<polygon fill="#fb8072" stroke="#000000" points="634.6523,-190 533.3477,-190 533.3477,-154 634.6523,-154 634.6523,-190"/>
<text text-anchor="middle" x="584" y="-167.8" font-family="Times,serif" font-size="14.00" fill="#000000">RouterModule </text>
</g>
<!-- AppRoutingModule&#45;&gt;RouterModule  -->
<g id="edge7" class="edge">
<title>AppRoutingModule&#45;&gt;RouterModule </title>
<path fill="none" stroke="#000000" stroke-dasharray="5,2" d="M493.3874,-110C535.9734,-110 584,-110 584,-110 584,-110 584,-143.7333 584,-143.7333"/>
<polygon fill="#000000" stroke="#000000" points="580.5001,-143.7333 584,-153.7333 587.5001,-143.7333 580.5001,-143.7333"/>
</g>
<!-- AppComponent  -->
<g id="node6" class="node">
<title>AppComponent </title>
<polygon fill="#80b1d3" stroke="#000000" points="287.439,-258 178.561,-258 178.561,-222 287.439,-222 287.439,-258"/>
<text text-anchor="middle" x="233" y="-235.8" font-family="Times,serif" font-size="14.00" fill="#000000">AppComponent </text>
</g>
<!-- AppModule&#45;&gt;AppComponent  -->
<g id="edge5" class="edge">
<title>AppModule&#45;&gt;AppComponent </title>
<path fill="none" stroke="#000000" stroke-dasharray="1,5" d="M233,-190.2228C233,-190.2228 233,-211.7269 233,-211.7269"/>
<polygon fill="#000000" stroke="#000000" points="229.5001,-211.7269 233,-221.7269 236.5001,-211.727 229.5001,-211.7269"/>
</g>
<!-- RouterModule.forRoot(args) -->
<g id="node7" class="node">
<title>RouterModule.forRoot(args)</title>
<polygon fill="#8dd3c7" stroke="#000000" points="836.8419,-190 833.8419,-194 812.8419,-194 809.8419,-190 659.1581,-190 659.1581,-154 836.8419,-154 836.8419,-190"/>
<text text-anchor="middle" x="748" y="-167.8" font-family="Times,serif" font-size="14.00" fill="#000000">RouterModule.forRoot(args)</text>
</g>
<!-- RouterModule.forRoot(args)&#45;&gt;AppRoutingModule -->
<g id="edge6" class="edge">
<title>RouterModule.forRoot(args)&#45;&gt;AppRoutingModule</title>
<path fill="none" stroke="#000000" d="M748,-153.7079C748,-131.7943 748,-98 748,-98 748,-98 503.5544,-98 503.5544,-98"/>
<polygon fill="#000000" stroke="#000000" points="503.5544,-94.5001 493.5544,-98 503.5544,-101.5001 503.5544,-94.5001"/>
</g>
</g>
</svg>
